PathFileType	4	(X/Y/Z)	Patient4_TMGait_0pt4_02_left_24.trc.trc
DataRate	CameraRate	NumFrames	NumMarkers	Units	OrigDataRate	OrigDataStartFrame	OrigNumFrames
68.292682926829	68.292682926829	4	33	mm	68.292682926829	124	       141
Frame#	Time	Sacral			L.Shoulder			Chest			R.Shoulder			Neck			R.ASIS			L.ASIS			R.Thigh.Superior			R.Thigh.Lateral			R.Thigh.Inferior			R.Patella			L.Thigh.Superior			L.Thigh.Lateral			L.Thigh.Inferior			L.Patella			L.Shank.Superior			L.Shank.Lateral			L.Shank.Inferior			R.Shank.Superior			R.Shank.Lateral			R.Shank.Inferior			R.Heel			R.Midfoot.Superior			R.Midfoot.Lateral			R.Toe			L.Heel			L.Midfoot.Lateral			L.Midfoot.Superior			L.Toe			L.Elbow			L.Wrist			R.Elbow			R.Wrist			
		X1	Y1	Z1	X2	Y2	Z2	X3	Y3	Z3	X4	Y4	Z4	X5	Y5	Z5	X6	Y6	Z6	X7	Y7	Z7	X8	Y8	Z8	X9	Y9	Z9	X10	Y10	Z10	X11	Y11	Z11	X12	Y12	Z12	X13	Y13	Z13	X14	Y14	Z14	X15	Y15	Z15	X16	Y16	Z16	X17	Y17	Z17	X18	Y18	Z18	X19	Y19	Z19	X20	Y20	Z20	X21	Y21	Z21	X22	Y22	Z22	X23	Y23	Z23	X24	Y24	Z24	X25	Y25	Z25	X26	Y26	Z26	X27	Y27	Z27	X28	Y28	Z28	X29	Y29	Z29	X30	Y30	Z30	X31	Y31	Z31	X32	Y32	Z32	X33	Y33	Z33	

124	33.931071428571	857.334178034166	998.524594343150	520.423345664494	1009.066101956204	1439.558906732568	344.381112551426	1129.111804110155	1365.559293274577	490.069192354204	1061.960382814017	1425.121112294840	676.441896648611	1011.218664532747	1492.707521595998	505.132093167501	1096.724635572746	941.112274425857	616.685070309690	1058.700033831994	962.556101138665	344.180079632961	1104.063995798970	730.281130775077	586.706419339403	1009.177273103130	630.224313988367	653.404538665692	1068.451193172234	569.120769206054	569.977256303295	1053.031822329265	483.444982757352	575.310993832135	1129.953530637958	765.152704348453	364.126259963831	1068.506999147520	638.536415160237	292.601635367274	1173.470971939872	577.348042168459	346.139254965899	1192.119014449545	508.616699043724	344.074000449743	1171.016830730289	435.782305003031	333.571324252657	1091.296724307367	313.633803525444	283.554951391879	1168.912161055837	205.566196187766	334.947328048625	1016.880511656176	396.885222364004	583.835081931345	937.744631883428	300.787736663078	650.038795759239	965.997390991276	203.152255037364	582.503775968369	818.558890540497	42.447036221581	559.983286927651	992.866970490133	97.425292637807	582.023817691950	907.677825087923	36.621850190912	627.389590656381	1114.020697607623	45.921059255376	598.637057037750	1066.544414209452	39.820554776808	371.876290612210	1139.246750952005	37.579122343635	290.639485058508	1219.898511145617	103.683444178350	314.027503776698	1348.983713329111	57.470977848877	284.284623887731	900.515526853277	1106.506445920122	229.795070359889	951.470063833643	850.386277706238	190.627232018607	1130.243632787647	1082.075398285882	785.882268722045	1368.233173817250	1033.261431167716	708.148906984625	
125	33.945714285714	857.803132287031	998.266502715534	517.769322141454	1009.737685119703	1438.914225984646	341.229010350126	1129.322913827249	1365.307377168032	487.505183893881	1061.316316330308	1425.062908407273	673.518914357105	1010.968784566483	1492.355660323446	501.903156875812	1096.921382011780	940.769245340376	614.922686573618	1059.676126989028	961.826113585201	342.469211862056	1103.741090504627	729.528703417500	585.495427819311	1007.802737463033	629.962186255980	651.761170045309	1067.274055706506	568.214622945042	568.909243372781	1051.211897345926	482.265467375187	574.228065523631	1129.998602369165	762.929903320739	363.798031674088	1067.657601435360	637.271526553240	292.188152218212	1171.545134944380	575.339908873520	347.190988619039	1189.018960294263	505.973007831419	345.275901805600	1167.409043424609	433.256836332212	334.278894830330	1086.529264886811	311.896939604519	284.213329272221	1162.363867502905	203.045616434654	336.365312389773	1014.143378436934	396.276198524075	582.893002011365	933.839856337289	301.231266740564	649.250852148505	961.323034081532	203.000014012941	582.178395044640	812.778454022395	42.742312959703	560.020841600392	987.268914217117	97.343095342173	581.988241002212	901.904661116979	36.665517922780	627.325565271461	1108.318103290050	45.298257946188	598.700034452596	1057.519420500826	39.021609500498	373.182868060506	1130.238896604479	36.280491570598	291.877223401867	1211.914070110400	100.829304243816	316.001204855322	1340.589576061429	52.749683435807	286.045664319167	902.757705086567	1105.527378460178	226.040608343779	956.596952157240	849.862375735293	186.950392644909	1128.508854361391	1082.046139030026	783.248988724323	1366.612087201040	1038.373897572895	703.722422767487	
126	33.960357142857	858.198083025435	998.168412313219	515.065952160261	1010.538761572702	1438.377892681684	338.051539925108	1129.673709310256	1365.078013374302	484.871256407649	1060.939711248411	1425.158310419600	670.519836975228	1010.893647443915	1492.120013293140	498.605395362528	1097.022132803680	940.422480520642	612.913143123205	1060.450164940055	961.309028915674	340.542283447095	1103.369986439436	728.845013719488	583.950384697112	1006.578818702111	629.713817504035	649.901392618871	1066.270494550261	567.366222523049	567.585665805866	1049.691098890728	481.053968796369	572.975606338535	1130.122115661687	761.302714159655	363.229929372562	1067.200362982577	636.512641871530	291.393377521308	1169.980425401626	573.887787964502	347.870137997069	1186.368080227932	503.960112416116	346.077624690698	1164.369182997850	431.338716805486	334.586638977821	1082.634060442869	310.700360607518	284.242205780775	1156.675031342634	201.202357046920	337.284346175516	1011.617373337130	395.661226069427	581.779372679297	930.116624243363	301.725631123436	648.325723989009	956.757207914080	202.879730005624	581.754096942480	807.007621348261	43.147409304534	560.049013055795	981.716516507166	97.289373208732	581.941272064468	896.159557735269	36.732873870504	627.234475415300	1102.662168151699	44.620155657426	598.772269064418	1049.735160892045	38.504974807529	373.952445547499	1122.464836361911	35.507546440992	292.584325599280	1204.824903734509	98.900911137258	317.355550413282	1333.229981892487	49.529584298752	287.203692511466	905.534779093370	1104.601359124291	222.013775728925	962.251205731809	849.420014090506	183.057544418073	1126.618563267180	1082.241539168215	780.895427506545	1364.861264698880	1043.358540139646	700.025177479995	
127	33.975000000000	858.498736298306	998.214889625787	512.304214406589	1011.396950212192	1437.954545990199	334.879199111978	1130.121219557243	1364.869985177496	482.174023791645	1060.823612853141	1425.403666783789	667.465185563027	1010.962022723044	1491.999128775688	495.269444917132	1097.007573647547	940.085586100587	610.655970350869	1061.007625365329	961.005468320772	338.362053680304	1102.927178053842	728.258473553564	582.101189712601	1005.495263358263	629.497683817215	647.859905325850	1065.449938373252	566.599033475311	566.053574191818	1048.505156134375	479.817166671945	571.629232570733	1130.371770040593	760.360466683920	362.323703884516	1067.184041313690	636.227845897070	290.222029038895	1168.880973506576	572.979885323570	348.035399553096	1184.262011074209	502.551974411744	346.411500836934	1161.951217489433	429.970882557789	334.518984194029	1079.575159073554	310.017576545908	283.699984038229	1151.753094325745	199.964762933447	337.773920696070	1009.320635328312	395.051456292423	580.546070252978	926.575618480916	302.282230654686	647.287393815780	952.307692403721	202.807626233693	581.256618179450	801.248843493100	43.710459349344	560.069666722341	976.218455896366	97.270442715488	581.891306733733	890.442058173655	36.846209975700	627.123773513113	1097.052696362793	43.890184418130	598.852445886782	1042.997769398791	38.236439447426	374.280140334354	1115.733215700894	35.162702747020	292.861909110080	1198.492957082045	97.778965924890	318.161221880995	1326.746150929725	47.607142759104	287.836826901926	908.754394418243	1103.744254412789	217.749631104475	968.467847248861	849.110856672306	178.998193119437	1124.565330591247	1082.665424110579	778.838860979713	1362.983621760508	1048.102010041267	697.082698352106	
